<mxfile host="Electron" agent="Mozilla/5.0 (Macintosh; Intel Mac OS X 10_15_7) AppleWebKit/537.36 (KHTML, like Gecko) draw.io/26.2.15 Chrome/134.0.6998.205 Electron/35.2.1 Safari/537.36" version="26.2.15">
  <diagram name="Page-1" id="6gULVhWcurzz5zKnDaAR">
    <mxGraphModel dx="1667" dy="1058" grid="1" gridSize="10" guides="1" tooltips="1" connect="1" arrows="1" fold="1" page="1" pageScale="1" pageWidth="1169" pageHeight="827" background="none" math="0" shadow="0">
      <root>
        <mxCell id="0" />
        <mxCell id="1" parent="0" />
        <mxCell id="r7VOtmBWi9sTdI5Oyx6i-44" value="" style="rounded=1;whiteSpace=wrap;html=1;fontSize=16;fillColor=none;dashed=1;labelBackgroundColor=none;" parent="1" vertex="1">
          <mxGeometry x="184.755" y="320" width="720" height="410" as="geometry" />
        </mxCell>
        <mxCell id="r7VOtmBWi9sTdI5Oyx6i-20" value="" style="edgeStyle=elbowEdgeStyle;elbow=vertical;endArrow=classic;html=1;curved=0;rounded=1;endSize=8;startSize=8;fontSize=12;exitX=0.5;exitY=0;exitDx=0;exitDy=0;entryX=0;entryY=0.75;entryDx=0;entryDy=0;labelBackgroundColor=none;fontColor=default;" parent="1" source="r7VOtmBWi9sTdI5Oyx6i-2" target="r7VOtmBWi9sTdI5Oyx6i-1" edge="1">
          <mxGeometry width="50" height="50" relative="1" as="geometry">
            <mxPoint x="375.005" y="350" as="sourcePoint" />
            <mxPoint x="425.005" y="300" as="targetPoint" />
            <Array as="points">
              <mxPoint x="390" y="124" />
            </Array>
          </mxGeometry>
        </mxCell>
        <mxCell id="r7VOtmBWi9sTdI5Oyx6i-21" value="" style="edgeStyle=elbowEdgeStyle;elbow=vertical;endArrow=classic;html=1;curved=0;rounded=1;endSize=8;startSize=8;fontSize=12;exitX=0.5;exitY=0;exitDx=0;exitDy=0;entryX=1;entryY=0.75;entryDx=0;entryDy=0;labelBackgroundColor=none;fontColor=default;" parent="1" source="r7VOtmBWi9sTdI5Oyx6i-6" target="r7VOtmBWi9sTdI5Oyx6i-1" edge="1">
          <mxGeometry width="50" height="50" relative="1" as="geometry">
            <mxPoint x="545.005" y="340" as="sourcePoint" />
            <mxPoint x="595.005" y="290" as="targetPoint" />
            <Array as="points">
              <mxPoint x="710" y="124" />
            </Array>
          </mxGeometry>
        </mxCell>
        <mxCell id="r7VOtmBWi9sTdI5Oyx6i-34" value="" style="rounded=1;whiteSpace=wrap;html=1;fontSize=16;fillColor=none;dashed=1;labelBackgroundColor=none;" parent="1" vertex="1">
          <mxGeometry x="565.005" y="340" width="310" height="340" as="geometry" />
        </mxCell>
        <UserObject label="&lt;font style=&quot;&quot;&gt;&lt;span style=&quot;font-size: 20px;&quot;&gt;JOSE and COSE&lt;br&gt;&lt;/span&gt;&lt;span style=&quot;font-size: 10px;&quot;&gt;&lt;i&gt;Enveloping proofs using JWS, SD-JWT, or CBOR&lt;/i&gt;&lt;/span&gt;&lt;br&gt;&lt;/font&gt;" link="https://www.w3.org/TR/vc-jose-cose/" linkTarget="_blank" id="r7VOtmBWi9sTdI5Oyx6i-6">
          <mxCell style="rounded=1;whiteSpace=wrap;html=1;fontSize=16;labelBackgroundColor=none;fillColor=none;" parent="1" vertex="1">
            <mxGeometry x="605.005" y="360" width="237.5" height="50" as="geometry" />
          </mxCell>
        </UserObject>
        <mxCell id="r7VOtmBWi9sTdI5Oyx6i-33" value="" style="rounded=1;whiteSpace=wrap;html=1;fontSize=16;fillColor=none;dashed=1;labelBackgroundColor=none;" parent="1" vertex="1">
          <mxGeometry x="215.005" y="340" width="310" height="340" as="geometry" />
        </mxCell>
        <UserObject label="&lt;span style=&quot;font-size: 20px;&quot;&gt;Ed&lt;/span&gt;&lt;span style=&quot;font-size: 20px; background-color: initial;&quot;&gt;DSA Cryptosuites&lt;/span&gt;&lt;div&gt;&lt;font style=&quot;font-size: 10px;&quot;&gt;&lt;i&gt;Data Integrity with Edwards elliptic curves&lt;/i&gt;&lt;/font&gt;&lt;/div&gt;" link="https://www.w3.org/TR/vc-di-eddsa/" linkTarget="_blank" id="r7VOtmBWi9sTdI5Oyx6i-3">
          <mxCell style="rounded=1;whiteSpace=wrap;html=1;fontSize=16;labelBackgroundColor=none;fillColor=none;" parent="1" vertex="1">
            <mxGeometry x="295.005" y="437" width="215" height="50" as="geometry" />
          </mxCell>
        </UserObject>
        <UserObject label="&lt;span style=&quot;font-size: 20px;&quot;&gt;ECDSA Cryptosuites&lt;/span&gt;&lt;br&gt;&lt;font style=&quot;font-size: 10px;&quot;&gt;&lt;i&gt;Data Integrity with NIST elliptic curves&lt;/i&gt;&lt;/font&gt;" link="https://www.w3.org/TR/vc-di-ecdsa/" linkTarget="_blank" id="r7VOtmBWi9sTdI5Oyx6i-4">
          <mxCell style="rounded=1;whiteSpace=wrap;html=1;fontSize=16;labelBackgroundColor=none;fillColor=none;" parent="1" vertex="1">
            <mxGeometry x="295.005" y="510" width="215" height="50" as="geometry" />
          </mxCell>
        </UserObject>
        <UserObject label="&lt;span style=&quot;font-size: 20px;&quot;&gt;BBS Cryptosuites&lt;/span&gt;&lt;br&gt;&lt;font style=&quot;font-size: 10px;&quot;&gt;&lt;i&gt;Data Integrity with BBS selective disclosures&lt;/i&gt;&lt;/font&gt;" link="https://www.w3.org/TR/vc-di-bbs/" linkTarget="_blank" id="r7VOtmBWi9sTdI5Oyx6i-5">
          <mxCell style="rounded=1;whiteSpace=wrap;html=1;fontSize=16;labelBackgroundColor=none;fillColor=none;" parent="1" vertex="1">
            <mxGeometry x="295.005" y="583" width="215" height="50" as="geometry" />
          </mxCell>
        </UserObject>
        <UserObject label="&lt;font style=&quot;font-size: 20px;&quot;&gt;Data Integrity&lt;/font&gt;&lt;br&gt;&lt;font style=&quot;font-size: 10px;&quot;&gt;&lt;i&gt;General structure of embedded proofs&lt;/i&gt;&lt;/font&gt;" link="https://www.w3.org/TR/vc-data-integrity/" linkTarget="_blank" id="r7VOtmBWi9sTdI5Oyx6i-2">
          <mxCell style="rounded=1;whiteSpace=wrap;html=1;fontSize=16;labelBackgroundColor=none;fillColor=none;" parent="1" vertex="1">
            <mxGeometry x="269.005" y="360" width="215" height="50" as="geometry" />
          </mxCell>
        </UserObject>
        <mxCell id="r7VOtmBWi9sTdI5Oyx6i-37" value="" style="edgeStyle=elbowEdgeStyle;elbow=horizontal;endArrow=classic;html=1;curved=0;rounded=1;endSize=8;startSize=8;fontSize=12;entryX=0;entryY=0.5;entryDx=0;entryDy=0;exitX=0;exitY=0.5;exitDx=0;exitDy=0;labelBackgroundColor=none;fontColor=default;" parent="1" source="r7VOtmBWi9sTdI5Oyx6i-3" target="r7VOtmBWi9sTdI5Oyx6i-2" edge="1">
          <mxGeometry width="50" height="50" relative="1" as="geometry">
            <mxPoint x="235.005" y="489" as="sourcePoint" />
            <mxPoint x="285.005" y="439" as="targetPoint" />
            <Array as="points">
              <mxPoint x="245.005" y="430" />
            </Array>
          </mxGeometry>
        </mxCell>
        <mxCell id="r7VOtmBWi9sTdI5Oyx6i-38" value="" style="edgeStyle=elbowEdgeStyle;elbow=horizontal;endArrow=classic;html=1;curved=0;rounded=1;endSize=8;startSize=8;fontSize=12;entryX=0;entryY=0.5;entryDx=0;entryDy=0;exitX=0;exitY=0.5;exitDx=0;exitDy=0;labelBackgroundColor=none;fontColor=default;" parent="1" source="r7VOtmBWi9sTdI5Oyx6i-4" target="r7VOtmBWi9sTdI5Oyx6i-2" edge="1">
          <mxGeometry width="50" height="50" relative="1" as="geometry">
            <mxPoint x="275.005" y="580" as="sourcePoint" />
            <mxPoint x="249.005" y="490" as="targetPoint" />
            <Array as="points">
              <mxPoint x="245.005" y="460" />
            </Array>
          </mxGeometry>
        </mxCell>
        <mxCell id="r7VOtmBWi9sTdI5Oyx6i-39" value="" style="edgeStyle=elbowEdgeStyle;elbow=horizontal;endArrow=classic;html=1;curved=0;rounded=1;endSize=8;startSize=8;fontSize=12;entryX=0;entryY=0.5;entryDx=0;entryDy=0;exitX=0;exitY=0.5;exitDx=0;exitDy=0;labelBackgroundColor=none;fontColor=default;" parent="1" source="r7VOtmBWi9sTdI5Oyx6i-5" target="r7VOtmBWi9sTdI5Oyx6i-2" edge="1">
          <mxGeometry width="50" height="50" relative="1" as="geometry">
            <mxPoint x="275.005" y="600" as="sourcePoint" />
            <mxPoint x="249.005" y="510" as="targetPoint" />
            <Array as="points">
              <mxPoint x="245.005" y="490" />
            </Array>
          </mxGeometry>
        </mxCell>
        <mxCell id="Xbw9OttzSYU2m0TrLEde-5" style="edgeStyle=none;curved=1;rounded=0;orthogonalLoop=1;jettySize=auto;html=1;exitX=0.5;exitY=0;exitDx=0;exitDy=0;entryX=0.5;entryY=1;entryDx=0;entryDy=0;fontSize=12;startSize=8;endSize=8;startArrow=classic;startFill=1;endArrow=none;endFill=0;" parent="1" source="Xbw9OttzSYU2m0TrLEde-2" target="r7VOtmBWi9sTdI5Oyx6i-1" edge="1">
          <mxGeometry relative="1" as="geometry" />
        </mxCell>
        <UserObject label="&lt;font style=&quot;&quot;&gt;&lt;span style=&quot;font-size: 20px;&quot;&gt;Controlled Identifiers&lt;/span&gt;&lt;/font&gt;&lt;div&gt;&lt;font style=&quot;&quot;&gt;&lt;i style=&quot;font-size: 10px;&quot;&gt;Common definitions for verification methods and relationships, and key representations&lt;/i&gt;&lt;br&gt;&lt;/font&gt;&lt;/div&gt;" link="https://www.w3.org/TR/cid-1.0/" linkTarget="_blank" id="Xbw9OttzSYU2m0TrLEde-2">
          <mxCell style="rounded=1;whiteSpace=wrap;html=1;fontSize=16;labelBackgroundColor=none;fillColor=none;" parent="1" vertex="1">
            <mxGeometry x="400" y="195" width="290" height="70" as="geometry" />
          </mxCell>
        </UserObject>
        <UserObject label="&lt;font style=&quot;font-size: 20px;&quot;&gt;VC Data Model&lt;/font&gt;&lt;br&gt;&lt;font style=&quot;font-size: 10px;&quot;&gt;&lt;i&gt;Graph based model of verifiable claims in JSON for Issuer-Holder-Verifier relationships&lt;/i&gt;&lt;/font&gt;" link="https://www.w3.org/TR/vc-data-model-2.0/" linkTarget="_blank" id="r7VOtmBWi9sTdI5Oyx6i-1">
          <mxCell style="rounded=1;whiteSpace=wrap;html=1;fontSize=16;labelBackgroundColor=none;fillColor=none;" parent="1" vertex="1">
            <mxGeometry x="404.755" y="64" width="280" height="80" as="geometry" />
          </mxCell>
        </UserObject>
        <UserObject label="&lt;font style=&quot;&quot;&gt;&lt;span style=&quot;font-size: 20px;&quot;&gt;JSON Schema&lt;br&gt;&lt;/span&gt;&lt;i style=&quot;font-size: 10px;&quot;&gt;JSON Schemas for the structural checking of VCs&lt;/i&gt;&lt;br&gt;&lt;/font&gt;" link="https://www.w3.org/TR/vc-json-schema/" linkTarget="_blank" id="r7VOtmBWi9sTdI5Oyx6i-7">
          <mxCell style="rounded=1;whiteSpace=wrap;html=1;fontSize=16;labelBackgroundColor=none;fillColor=none;" parent="1" vertex="1">
            <mxGeometry x="75.005" y="142" width="240" height="60" as="geometry" />
          </mxCell>
        </UserObject>
        <UserObject label="&lt;font style=&quot;&quot;&gt;&lt;span style=&quot;font-size: 20px;&quot;&gt;Bitstring Status List&lt;br&gt;&lt;/span&gt;&lt;i style=&quot;font-size: 10px;&quot;&gt;Publishing status information for VCs using bitstrings&lt;/i&gt;&lt;br&gt;&lt;/font&gt;" link="https://www.w3.org/TR/vc-bitstring-status-list/" linkTarget="_blank" id="r7VOtmBWi9sTdI5Oyx6i-8">
          <mxCell style="rounded=1;whiteSpace=wrap;html=1;fontSize=16;labelBackgroundColor=none;fillColor=none;" parent="1" vertex="1">
            <mxGeometry x="807.005" y="142" width="287.5" height="60" as="geometry" />
          </mxCell>
        </UserObject>
        <mxCell id="r7VOtmBWi9sTdI5Oyx6i-23" value="" style="edgeStyle=elbowEdgeStyle;elbow=horizontal;endArrow=classic;html=1;curved=0;rounded=1;endSize=8;startSize=8;fontSize=12;exitX=0.5;exitY=0;exitDx=0;exitDy=0;entryX=0;entryY=0.5;entryDx=0;entryDy=0;labelBackgroundColor=none;fontColor=default;" parent="1" source="r7VOtmBWi9sTdI5Oyx6i-7" target="r7VOtmBWi9sTdI5Oyx6i-1" edge="1">
          <mxGeometry width="50" height="50" relative="1" as="geometry">
            <mxPoint x="215.005" y="92" as="sourcePoint" />
            <mxPoint x="265.005" y="42" as="targetPoint" />
            <Array as="points">
              <mxPoint x="195.005" y="132" />
            </Array>
          </mxGeometry>
        </mxCell>
        <mxCell id="r7VOtmBWi9sTdI5Oyx6i-24" value="" style="edgeStyle=elbowEdgeStyle;elbow=horizontal;endArrow=classic;html=1;curved=0;rounded=1;endSize=8;startSize=8;fontSize=12;entryX=1;entryY=0.5;entryDx=0;entryDy=0;exitX=0.5;exitY=0;exitDx=0;exitDy=0;labelBackgroundColor=none;fontColor=default;" parent="1" source="r7VOtmBWi9sTdI5Oyx6i-8" target="r7VOtmBWi9sTdI5Oyx6i-1" edge="1">
          <mxGeometry width="50" height="50" relative="1" as="geometry">
            <mxPoint x="1029.005" y="82" as="sourcePoint" />
            <mxPoint x="735.005" y="22" as="targetPoint" />
            <Array as="points">
              <mxPoint x="951.005" y="132" />
            </Array>
          </mxGeometry>
        </mxCell>
        <mxCell id="Xbw9OttzSYU2m0TrLEde-3" value="" style="edgeStyle=elbowEdgeStyle;elbow=vertical;endArrow=classic;html=1;curved=0;rounded=1;endSize=8;startSize=8;fontSize=12;exitX=0.25;exitY=0;exitDx=0;exitDy=0;entryX=0.75;entryY=1;entryDx=0;entryDy=0;labelBackgroundColor=none;fontColor=default;" parent="1" source="r7VOtmBWi9sTdI5Oyx6i-6" target="Xbw9OttzSYU2m0TrLEde-2" edge="1">
          <mxGeometry width="50" height="50" relative="1" as="geometry">
            <mxPoint x="759" y="366" as="sourcePoint" />
            <mxPoint x="720" y="130" as="targetPoint" />
            <Array as="points">
              <mxPoint x="630" y="300" />
            </Array>
          </mxGeometry>
        </mxCell>
        <mxCell id="Xbw9OttzSYU2m0TrLEde-4" value="" style="edgeStyle=elbowEdgeStyle;elbow=vertical;endArrow=classic;html=1;curved=0;rounded=1;endSize=8;startSize=8;fontSize=12;exitX=0.75;exitY=0;exitDx=0;exitDy=0;entryX=0.25;entryY=1;entryDx=0;entryDy=0;labelBackgroundColor=none;fontColor=default;" parent="1" source="r7VOtmBWi9sTdI5Oyx6i-2" target="Xbw9OttzSYU2m0TrLEde-2" edge="1">
          <mxGeometry width="50" height="50" relative="1" as="geometry">
            <mxPoint x="530" y="360" as="sourcePoint" />
            <mxPoint x="470" y="280" as="targetPoint" />
            <Array as="points">
              <mxPoint x="386" y="300" />
            </Array>
          </mxGeometry>
        </mxCell>
        <mxCell id="o33hrdEk1rEdeaYNmZue-1" value="" style="endArrow=classic;html=1;rounded=0;fontSize=12;startSize=8;endSize=8;curved=1;exitX=0.5;exitY=0;exitDx=0;exitDy=0;" parent="1" source="r7VOtmBWi9sTdI5Oyx6i-5" target="r7VOtmBWi9sTdI5Oyx6i-4" edge="1">
          <mxGeometry width="50" height="50" relative="1" as="geometry">
            <mxPoint x="630" y="680" as="sourcePoint" />
            <mxPoint x="680" y="630" as="targetPoint" />
          </mxGeometry>
        </mxCell>
        <mxCell id="7Y__Ef_JBj4FKFU6f0si-1" value="&lt;i&gt;Enveloping Proofs&lt;/i&gt;" style="text;html=1;align=center;verticalAlign=middle;resizable=0;points=[];autosize=1;strokeColor=none;fillColor=none;fontSize=16;" vertex="1" parent="1">
          <mxGeometry x="657.01" y="650" width="150" height="30" as="geometry" />
        </mxCell>
        <mxCell id="7Y__Ef_JBj4FKFU6f0si-2" value="&lt;i&gt;Embedded proofs&lt;/i&gt;" style="text;html=1;align=center;verticalAlign=middle;resizable=0;points=[];autosize=1;strokeColor=none;fillColor=none;fontSize=16;" vertex="1" parent="1">
          <mxGeometry x="301.51" y="650" width="150" height="30" as="geometry" />
        </mxCell>
        <mxCell id="7Y__Ef_JBj4FKFU6f0si-3" value="&lt;i&gt;Securing mechanisms of VCs&lt;/i&gt;" style="text;html=1;align=center;verticalAlign=middle;resizable=0;points=[];autosize=1;strokeColor=none;fillColor=none;fontSize=16;" vertex="1" parent="1">
          <mxGeometry x="430" y="700" width="230" height="30" as="geometry" />
        </mxCell>
      </root>
    </mxGraphModel>
  </diagram>
</mxfile>
